<svg width="586" height="157" viewBox="0 0 586 157" fill="none" xmlns="http://www.w3.org/2000/svg">
<path d="M185.425 119.955V37.8471H197.814V73.5289H238.748V37.8471H251.176V119.955H238.748V84.1533H197.814V119.955H185.425Z" fill="black"/>
<path d="M286.176 121.319C282.274 121.319 278.746 120.597 275.592 119.154C272.438 117.684 269.939 115.559 268.095 112.779C266.277 109.999 265.369 106.591 265.369 102.555C265.369 99.0809 266.037 96.221 267.373 93.9758C268.71 91.7307 270.514 89.9533 272.786 88.6436C275.057 87.3339 277.597 86.345 280.403 85.6768C283.21 85.0086 286.069 84.5008 288.983 84.1533C292.671 83.7256 295.665 83.3782 297.963 83.1109C300.262 82.8169 301.932 82.3492 302.975 81.7077C304.017 81.0662 304.538 80.0238 304.538 78.5805V78.2999C304.538 74.7985 303.549 72.0856 301.572 70.1612C299.62 68.2368 296.707 67.2746 292.832 67.2746C288.796 67.2746 285.615 68.17 283.29 69.9607C280.991 71.7248 279.401 73.6893 278.519 75.8543L267.253 73.2884C268.589 69.5465 270.54 66.5262 273.106 64.2276C275.699 61.9023 278.679 60.2184 282.047 59.176C285.415 58.1069 288.956 57.5723 292.671 57.5723C295.13 57.5723 297.736 57.8663 300.489 58.4544C303.269 59.0157 305.861 60.058 308.267 61.5815C310.699 63.105 312.69 65.2834 314.241 68.1165C315.791 70.923 316.566 74.5713 316.566 79.0616V119.955H304.859V111.536H304.378C303.603 113.086 302.44 114.61 300.89 116.107C299.34 117.603 297.349 118.846 294.916 119.835C292.484 120.824 289.571 121.319 286.176 121.319ZM288.782 111.696C292.097 111.696 294.93 111.042 297.282 109.732C299.661 108.422 301.465 106.712 302.694 104.6C303.95 102.462 304.579 100.177 304.579 97.7445V89.8063C304.151 90.2339 303.322 90.6348 302.093 91.009C300.89 91.3565 299.514 91.6638 297.963 91.9311C296.413 92.1717 294.903 92.3989 293.433 92.6127C291.963 92.7998 290.733 92.9602 289.744 93.0938C287.419 93.3878 285.294 93.8823 283.37 94.5772C281.472 95.2721 279.949 96.2744 278.799 97.5841C277.677 98.867 277.116 100.578 277.116 102.716C277.116 105.683 278.211 107.928 280.403 109.451C282.595 110.948 285.388 111.696 288.782 111.696Z" fill="black"/>
<path d="M358.472 121.198C352.512 121.198 347.38 119.848 343.077 117.149C338.8 114.423 335.513 110.667 333.214 105.883C330.916 101.099 329.766 95.6196 329.766 89.4454C329.766 83.1911 330.942 77.6718 333.294 72.8875C335.646 68.0764 338.961 64.3211 343.237 61.6216C347.514 58.9221 352.552 57.5723 358.352 57.5723C363.029 57.5723 367.199 58.441 370.86 60.1783C374.522 61.8889 377.476 64.2944 379.721 67.3949C381.993 70.4953 383.342 74.1169 383.77 78.2598H372.103C371.462 75.3732 369.992 72.8875 367.693 70.8027C365.421 68.7179 362.374 67.6755 358.552 67.6755C355.211 67.6755 352.285 68.5575 349.772 70.3216C347.286 72.0589 345.349 74.5446 343.959 77.7787C342.569 80.986 341.874 84.7814 341.874 89.1648C341.874 93.6551 342.556 97.5306 343.919 100.791C345.282 104.052 347.206 106.578 349.692 108.369C352.204 110.16 355.158 111.055 358.552 111.055C360.824 111.055 362.882 110.641 364.726 109.812C366.597 108.957 368.161 107.741 369.417 106.164C370.7 104.587 371.596 102.689 372.103 100.471H383.77C383.342 104.453 382.046 108.008 379.881 111.135C377.716 114.262 374.816 116.721 371.181 118.512C367.573 120.303 363.337 121.198 358.472 121.198Z" fill="black"/>
<path d="M408.577 83.3915V119.955H396.589V37.8471H408.417V68.3972H409.178C410.622 65.0829 412.827 62.4502 415.794 60.499C418.76 58.5479 422.636 57.5723 427.42 57.5723C431.643 57.5723 435.332 58.441 438.486 60.1783C441.666 61.9156 444.125 64.5082 445.862 67.9561C447.627 71.3773 448.509 75.6538 448.509 80.7856V119.955H436.521V82.2289C436.521 77.7119 435.358 74.2105 433.033 71.7248C430.708 69.2124 427.474 67.9561 423.331 67.9561C420.498 67.9561 417.958 68.5575 415.713 69.7603C413.495 70.963 411.744 72.7271 410.461 75.0524C409.205 77.351 408.577 80.1307 408.577 83.3915Z" fill="black"/>
<path d="M464.505 119.955V58.3742H476.493V119.955H464.505ZM470.559 48.8724C468.474 48.8724 466.684 48.1775 465.187 46.7876C463.717 45.371 462.982 43.6872 462.982 41.736C462.982 39.7582 463.717 38.0743 465.187 36.6844C466.684 35.2679 468.474 34.5596 470.559 34.5596C472.644 34.5596 474.421 35.2679 475.891 36.6844C477.388 38.0743 478.136 39.7582 478.136 41.736C478.136 43.6872 477.388 45.371 475.891 46.7876C474.421 48.1775 472.644 48.8724 470.559 48.8724Z" fill="black"/>
<path d="M500.518 119.955H487.368L516.915 37.8471H531.228L560.776 119.955H547.626L524.413 52.7613H523.771L500.518 119.955ZM502.723 87.8017H545.381V98.2256H502.723V87.8017Z" fill="black"/>
<path d="M585.022 37.8471V119.955H572.633V37.8471H585.022Z" fill="black"/>
<path d="M78.7491 61.623C87.4334 61.623 94.498 69.5041 94.498 79.1918C94.498 88.8796 87.4334 96.7606 78.7491 96.7606C69.6992 96.7606 62.0944 88.6681 54.3294 79.1918C62.0948 69.7155 69.6989 61.623 78.7491 61.623Z" fill="#45528B"/>
<path d="M15.749 61.623C24.7989 61.623 32.4036 69.7155 40.1687 79.1918C32.4039 88.6681 24.7992 96.7606 15.749 96.7606C7.06469 96.7606 1.14279e-05 88.8796 1.14279e-05 79.1918C1.14279e-05 69.5041 7.06469 61.623 15.749 61.623Z" fill="#45528B"/>
<rect x="0.287354" width="157" height="157" rx="4" fill="#45528B"/>
<path d="M47.4482 108.919C58.6639 108.919 71.645 97.6735 79.2779 89.9522C86.9108 97.6735 99.8919 108.919 111.108 108.919C127.931 108.919 141.587 95.2897 141.587 78.4998C141.587 61.7099 127.931 48.0811 111.108 48.0811C99.8919 48.0811 86.9108 59.3261 79.2779 67.0474C71.645 59.3261 58.6639 48.0811 47.4482 48.0811C30.6246 48.0811 16.9685 61.7099 16.9685 78.4998C16.9685 95.2897 30.6246 108.919 47.4482 108.919ZM111.108 63.6273C119.312 63.6273 126.01 70.3121 126.01 78.4998C126.01 86.6875 119.312 93.3723 111.108 93.3723C106.694 93.3723 97.5034 86.3765 89.8185 78.4998C97.5034 70.6231 106.694 63.6273 111.108 63.6273ZM47.4482 63.6273C51.8618 63.6273 61.0524 70.6231 68.7372 78.4998C61.0524 86.3765 51.8618 93.3723 47.4482 93.3723C39.2441 93.3723 32.5458 86.6875 32.5458 78.4998C32.5458 70.3121 39.2441 63.6273 47.4482 63.6273Z" fill="white"/>
</svg>
